/* XPM */
static char *_dd91b28725846e8c9609dfd3267cac4VNTgMONp0U4wchLT[] = {
/* columns rows colors chars-per-pixel */
"64 64 154 2 ",
"   c #7D5346",
".  c #937A62",
"X  c #918C5D",
"o  c #97915E",
"O  c #9A935E",
"+  c #8B8764",
"@  c #8E8A65",
"#  c #8F8B68",
"$  c #928E65",
"%  c #918E6C",
"&  c #959164",
"*  c #9C9666",
"=  c #95916D",
"-  c #9A966E",
";  c #92986C",
":  c #9E996E",
">  c #868376",
",  c #888675",
"<  c #8A8876",
"1  c #858479",
"2  c #8A8778",
"3  c #8D8B7C",
"4  c #928E74",
"5  c #928D7C",
"6  c #9A8D7D",
"7  c #8E907E",
"8  c #8D9F79",
"9  c #959373",
"0  c #999575",
"q  c #9C9975",
"w  c #95937B",
"e  c #9A967B",
"r  c #90987A",
"t  c #9D9A7C",
"y  c #A29C6C",
"u  c #AD8676",
"i  c #AE8877",
"p  c #B08A77",
"a  c #B38C7B",
"s  c #A49172",
"d  c #A19D74",
"f  c #A3927B",
"g  c #AE937D",
"h  c #A19D7C",
"j  c #AA9978",
"k  c #B2907D",
"l  c #B89079",
"z  c #93A37F",
"x  c #A5A17C",
"c  c #C88273",
"v  c #737197",
"b  c #949382",
"n  c #999682",
"m  c #979983",
"M  c #9D9B84",
"N  c #959489",
"B  c #98978A",
"V  c #979E8E",
"C  c #9E9C8A",
"Z  c #838294",
"A  c #888694",
"S  c #888598",
"D  c #928F96",
"F  c #9C9C94",
"G  c #92919B",
"H  c #A18E81",
"J  c #A39686",
"K  c #AD9582",
"L  c #A29E83",
"P  c #AB9A84",
"I  c #A79689",
"U  c #A29E8B",
"Y  c #AC9E8A",
"T  c #B69787",
"R  c #BF9582",
"E  c #B29986",
"W  c #BA9885",
"Q  c #B29C8A",
"!  c #BA9988",
"~  c #A19C91",
"^  c #AB9F90",
"/  c #9CA183",
"(  c #9FA889",
")  c #92A494",
"_  c #A4A185",
"`  c #A9A586",
"'  c #ACA886",
"]  c #A6A38B",
"[  c #A9A68C",
"{  c #A4A98B",
"}  c #ABA98E",
"|  c #B3A48E",
" . c #BBA28C",
".. c #B2AB8E",
"X. c #A3B18B",
"o. c #A5A391",
"O. c #A8A690",
"+. c #A9A492",
"@. c #ADA690",
"#. c #A5AA94",
"$. c #AAA893",
"%. c #AEAB93",
"&. c #AFAD91",
"*. c #ADAB94",
"=. c #AEAA95",
"-. c #AFAD96",
";. c #A5A39C",
":. c #AAA69A",
">. c #A4A99D",
",. c #ADAC99",
"<. c #AFAD98",
"1. c #B3A593",
"2. c #B8A591",
"3. c #B0AB93",
"4. c #B2AB94",
"5. c #B2A997",
"6. c #B0AC95",
"7. c #B1AF95",
"8. c #B3AF97",
"9. c #B9A698",
"0. c #B1AF99",
"q. c #B1AE9A",
"w. c #B8AF9D",
"e. c #A9B392",
"r. c #AFB096",
"t. c #AEB19B",
"y. c #B3B195",
"u. c #B2B097",
"i. c #B3B19B",
"p. c #B4B19B",
"a. c #B3B19D",
"s. c #B5B39F",
"d. c #B5B49E",
"f. c #B6B49F",
"g. c #B8B29E",
"h. c #9C9BA0",
"j. c #8CBBA9",
"k. c #A8A7A0",
"l. c #AFADA0",
"z. c #B1AEA1",
"x. c #B5B3A0",
"c. c #B7B3A0",
"v. c #B7B4A0",
"b. c #B6B4A1",
"n. c #B7B6A2",
"m. c #B9B6A3",
"M. c #BAB9A6",
"N. c #B9B7A8",
"B. c #BCBBA9",
"V. c #BFBDAE",
"C. c #C19081",
"Z. c #C29787",
"A. c #C0A391",
"S. c #C0BEAE",
/* pixels */
"} ' x O d ` } &.6.%.[ 6.h q ' [ } ' %.} ` h _ ` ` ' %.0.c.u.' x ` ` _ } %.} ' q 9 t M K W R c l & X & _ -.s.p.} %.s.0.' - : ` %.",
"x x d o d ' } } } %.3.6.' ] } ' ` ' } h # - t w n P ` O.-.6.-.} L d h _ ' L t q $ = M C C n , 9 = 0 q _ i.s.6.h t 0.p.%._ ' & q ",
"d : - & q ' [ [ _ [ -.%.&.-.L M M C _ 0 $ = e 5 5 n [ } [ &.0.i.&.' %.%.q 0 L _ = 9 e.a.s.0.} 9 _ &.i.d.s.6.' h [ p.d.a.p.s.t - ",
"h x _ L h _ ' ' _ ' } %.6.6.[ t e M e 0 e 9 5 8 { x h ' ' } i.0.-.&.<.i._ t ` [ L L $.<.s.v.` L V.v.6.d.6.s.s.a.s.-.' $.-.-.[ t ",
"h _ _ _ _ t 0 _ _ ' ' t } %.' t ' ` h } 0.0.&.O.Y _ L [ $.$.6.<.[ _ =.-.] ' -.-.L M M } 6.@.=.6.Z.| ' i.0.c.c.s.s.6.h t &.6.i.} ",
"h _ _ _ ` ` % q L _ [ t [ 0.&.[ =.L L i.5.-.$.o.J _ L ] =.=.=.] [ _ _ t t ] -.0.] 0 t M L L O.O.n =.[ $.c.c.a.s.i.$.C 6.0.&.6.i.",
"h _ _ ] [ ` 0 _ _ [ %._ -.s.i.-.i.%.0.$.] =.0.o.U _ ] } C ] =.0.1.1._ L t $.s.a.n / _ M _ ] ] t 0 ] =.6.s.v.p.6.=.0.d.i.i.$.` _ ",
"t _ ] [ ` L L _ %.6.6.-.s.s.0.=.0.6.=.=.@.} =.$.` ` %.O.C m =.-.$.<._ L M b 5 a.0.} ` L ] ` ] 0 # _ s.s.p.s.i.[ 6.s.s.s.p.] % + ",
"t _ _ _ L L $._ _ 6.s.i.i.s.i.-.[ b b 3 U ] =.[ ] } 0.J B M [ ` -.@.M _ $.$.=.i.%.%.$.[ O.[ [ _ 0 q %.0.6.-.-.6.=.-.6.i.s.$.] ] ",
"h t t t ] [ [ $ q -.$.$.<.-.$.$.$.N b 2 b b 3 $.$.6.[ L e _ %.%.[ L M [ | [ [ $.[ %.-.[ [ ' _ _ _ ` ` [ -.i.i.0.i.%.O.[ w.v.m.m.",
"_ _ _ %.i.i.q $ L d.r.<.$.L M [ =.C =.0.=.a.6.-.} } L e L } } %.$.L ] ] ] ` ] _ [ [ ] M _ L e n n M n _ } @.6.m.M.g.2.] <.s.m.v.",
"_ ] [ ' =.| s = } a.| ` O.t _ -.$.[ -.=.6.=.-.} [ [ B U [ [ %.-.} [ O.' [ _ _ ] -._ e e t M ] ` O.] L _ ] M U 0.#.o.o.O.<.C $.$.",
"] ` _ h ] u 4 9 _ %.E =.O.%.0.=.%.' $.%.%.=.-.%.0.O.` ] } } 0.s.$.%.] t 0 L %.%.0._ t M U [ [ ] _ L _ [ $.6.w.s.v.v.<.o.o.C P [ ",
"] %.[ [ ` g 7 ` L %.P M _ $.6.%.O.=.%.%.%.-.6.%.%.%.} [ [ %.i.s.-.} _ L ` } -.O.O.` _ ] =.a._ = 0 e t _ ] O.0.0.a.s.d.s.] n b U ",
"_ -.i.6.Q U -.i.] B B _ ] $.%.=.[ M ] ] ` P i Y 0.6.-.[ [ } 6.6.$.] %.6.6.6.6.] [ O.$.0.i.v.[ t ` ` t L O.[ O.-.-.$.[ =.] i.a.M ",
"%.%.0.] J o.s.a.$.n M M L M L L t e M M n 3 5 [ 0.0.0.-.0.%.%.%.' %.i.s.i.i.$.0 t -.%.-.6.6.%.-.9.2.1.-.$.` L _ O.[ O.6.0.B.v.] ",
"6.[ ' t C t.0.6.[ U [ %.$.e % 9 M b z { [ ' -.] -.0.%.} %.-.} 6.0.i.0.s.0.6.] 9 0 -.p.s.O.[ } =.=.$.o.a.=.n L ` %.} ` =.=. .5.] ",
"] t 9 % 9 } [ ` L _ [ %.%.L L ] [ %.-.[ %.%.=.%.$.%.O.] $.0.%.s.d.s.s.i.6.6.-.' t } 6.6.n ] ] $.0.0.0.0.U ] <.$.b n w e t < n n ",
"L 0 @ $ = L L t L ] %.%.] =.=.} [ [ -.6.6.=.%.=.-.O.} -.i.0.6.s.v.p.-.[ -.i.-.%.` _ %.%.L $.} %.%.i.0.[ ] 0.i.s.6.M M w % w r n ",
"` ` 0 # t L M t L L _ t %.=.%.%.' ] %.0.-.%.-.0.i.6.0.i.a.s.i.a.a.=._ ` %.$._ t L L [ %.` %.$.=.%.0.0.` %.s.0.i.0.=.6.-.` L L =.",
"%.] t _ 0 _ [ n 4 4 % f @.%.%.$.' _ -.=.%.-.&.-.%.%.-.0.0.a.-.0.0.-.-.0.6.t # 9 ' $.%.[ ] $.=.6.0.0.=.] _ %.[ %.-.<.d.m.d.i.[ _ ",
"} _ 0 t } e $.O.] ] U C b < > 5 ] ' ` &.6.6.-.$._ %.-.$.%.-.$.0.a.-.-.-._ t 9 ` a.0.} O.` $.%.%.i.0.o.$.] L ` s.M.M.m.m.s.s.s.0.",
"_ ' h L ' $.M _ C { [ $.} _ _ _ %.%.%.-.i.a.6.$.$.s.a.-.0.-.=.0.0.$.L t t L [ 0.s.p.-.[ ` %.%.%.0.$.] $.} _ x ` M.M.m.m.M.M.m.s.",
"_ &.0.$.h ] $.$.0.%.' %.6.%.-.-.6.-.=.-.%.=.%.&.0.a.i.0.i.$.$.%.} ] 9 9 _ ] 0.a.s.p.%.[ ' [ O.6.=.B o.%.=.6.%.[ } s.m.a.o.N $.[ ",
"` -.0.} t _ $.%.-.0.%.=.0.-.%.%.0.6.6.6.=.%.-.-.i.a.0.<.&.$.$.[ $.] = 0 [ =.6.0.a.0.6.[ $.%.%.%.] U ` %.%.s.p.s.-.%.3.a.0.o.] L ",
"&.[ t t _ [ L ` 6.i.0.-.=.-.} } 3.0.6.6.6.=.0.i.i.0.-.-.$.%.-.6.6.%.L 0 ' =.-.0.s.s.=._ [ $.-.%.O.[ $.%.} -.s.a.%.i.%.[ e % _ 6.",
"0.' q ] [ ] _ @.%.0.i.i.%.%.%.%.} =.i.0.6.-.s.i.<.6.-.=.%.%.-.0.0.6.[ t [ =.-.0.c.i.6.=.[ [ $.$.=.} -.6.6.%.0.0.i.%.0.%._ 0 0 ` ",
"%.$.] _ =.%.M $.$.-.0.i.6.%.$.-.%.t.p.0.s.i.d.a.%.[ =.=.-.=.6.0.=.-.-.] $.0.0.i.s.0.6.=.$.` t _ [ %.=.0.i.$.] =.v.i.6.p.0.[ 9 q ",
"_ $.$.0.=.-._ $.=.0.s.p.0.6.%.6.0.s.s.0.a.v.s.s.-.O.6.0.6.%.%.[ =.-.=.[ t 0.s.s.a.=.} %.$.[ t t 0 _ [ %.O.C ] _ %.i.0.s.s.=.B ] ",
"$.=.%.0.i.&.-.i.6.i.s.s.s.i.0.0.i.p.6.$.[ [ a.a.i.6.0.0.0.%.' L [ [ ` [ t s.v.s.0.[ $.=.$.` [ ` _ _ ` [ ] O.-.[ _ -.6.-.-.=.[ ] ",
"%.@.[ -.0.6.p.i.-.-.6.s.5.0.s.s.w.0.[ -.%.] %.i.s.0.0.-.-.6.%.` [ =.` [ s.d.i.0.0.=.-.=.L _ [ } $.$.` L t ` 0.i.%.v S o.t 0 t %.",
"$.} ' =.6.6.i.i.0.-.6.i.6.<.s.s.w.0.=.a.i.-.$.} s.i.0.-.6.0.0.-.%.[ $.%.$.=.=.0.0.0.%.%.t e [ %.%.[ L % = e M [ ` -.6.=.0 # _ } ",
"[ %.$.=.-.} %.-.%.<.6.0.i.s.i.s.i.6.0.i.i.-.%.-.0.s.a.-.6.6.0.=.6.} ' $.[ e _ %.-.-.=.] t 0 ] $.-.] 9 0 L L t e % t [ ] e t =.%.",
"] 3.6.%.%.[ ` $.%.-.&.0.a.p.6.6.0.0.6.0.-.-.-.0.i.s.a.i.0.i.-.-.0.0.[ =.-.-.} -.-.=.[ } $.%.0 ` $.t t ] $.L ` L 9 = t ` _ 6.0.O.",
"] } $.%.[ ` } } } } } %.a.a.=.=.i.0.6.-.6.&.0.0.i.c.s.s.i.i.0.i.0.0.-.6.0.0.-.%.` [ [ $.0.-.e 0 t ` %.%.0.0.%.0.0.[ _ L [ 6.0.6.",
"] [ } %.` ` [ ' %.-.%.%.-.a.0.0.i.0.<.0.-.6.0.0.a.v.c.s.%.$.-.=.[ 0.0.0.s.p.i.` L =.=.=.0.0.=._ 0 [ 0.-.i.0.i.a.m.>.) [ &.6.0.%.",
"] =.} } } } %.%.O.-.s.0.s.s.i.0.0.-.6.0.p.0.0.i.s.c.s.-.' [ =.%.] -.0.0.a.s.0.0.0.6.-.0.=.%.-.-.i.6.5.i.w.i.s.s.v.s.-.%.%.w < ` ",
"n =.&.' -.%.%.i.6.i.s.0.6.s.a.a.p.i.i.0.0.i.s.6.i.c.0.-.$.i.0.%.[ 6.0.0.i.a.i.0.i.0.6.-.<.-.s.s.i.0.0.v.6.i.0.-.%.-.O.f ] ` t t ",
"b <.0.%.i.0.=.m.m.v.s.-.%.-.-.6.s.s.p.6.0.i.i.$.' i.6.0.-.0.i.[ 6.s.s.6.a.s.a.d.s.-.%.-.i.l.s.a.0.0.0.0.-.6.=.[ [ ` _ ` ] [ ` M ",
"o.m.v.6.w.| =.v.m.m.v.p.%.%.6.=.0.i.p.p.0.0.0.-.$.0.0.6.-.-.-.] i.s.a.a.i.a.i.c.0.i.0.6.6.6.=.0.0.0.-.[ [ -.=.] ` ' [ [ q } [ ] ",
"v.m.m.i.| p o.d.M.s.0.a.0.-.6.i.0.0.-.0.0.0.i.a.0.-.i.0.%.%.-.%.i.s.s.a.s.s.a.s.a.a.i.i.%.} 6.-.G h.>.%.} [ } ' ` ` [ [ * x ` ` ",
"m.m.m.0.E 5 <.s.v.s.s.s.0.6.a.0.0.0.6.-.0.s.i.a.a.i.i.6.[ ] %.6.6.c.s.s.0.s.s.s.s.s.i.0.[ ' O.-.=.$.[ =.$.$.' [ %.{ [ [ d O ` 0.",
"%.i.s.@.J C B.B.s.0.$.] %.=.-.0.0.0.i.i.i.s.i.i.s.i.a.0.$.-.%.i.i.z.z.c.a.i.g.=.<.v.a.0.} [ } %.=.@.` ] } [ } $.-.[ 6.0.} x =.=.",
"' =.$.U L [ s.s.s.0.} L ` $.$.%.0.0.-.a.a.i.0.s.a.c.a.a.i.=.0.i.i.0.s.s.a.0.5.=.0.s.0.0.6.} $.` =.Z A ~ [ [ $.%.$.J C B h C C L ",
"-.%.U M / -.0.%.a.s.a.s.%.-.%.[ O.0.#.0.0.0.0.s.a.a.a.s.s.s.i.i.0.&.i.a.i.i.<.0.0.i.1.O.6.&.%.=.%.F ] $.[ ' [ $.T 6 o.n h M M L ",
"-.=.L e m -.0.p.6.a.0.0.%.-.s.-.L %.-.%.=.%.` i.s.a.w.v.s.c.0.a.0.-.0.;.<.0.0.0.$.:.O.=.} } =.-.o.V n ] $.' %.Y g U a...%.` L _ ",
"$.%.L t ] 6.-.i.s.i.;.:.0.s.s.s.-.v.s.0.p.%.-.i.l.l.s.v.s.a.0.0.%.-.v.z.a.0.i.0.-.<.=.=.-.} ] 6.=.] C 0.<.=.] K L 0.m.&.[ %._ h ",
"p.O.e e } [ ` %.6.0.<.a.s.s.s.v.m.m.s.a.a.p.6.0.p.s.s.d.p.i.0.6.0.0.c.c.s.i.0.6.=.0.6.a.i.[ %.%.%.$.U s.0.&.] e t 6.s.$.%.0.` h ",
"&.L 0 _ o.%.%.} =.0.0.i.m.v.m.m.m.-.-.0.0.p.i.0.p.s.v.s.s.0.a.=.0.i.k.<.0.0.6.-.&.i.;.;.<.6.a.6.O.;.>.0.&.=.] 9 w ) 0._ } ..} h ",
"%.[ _ [ i.p.s.M =.s.s.s.v.m.v.m.s.[ =.0.w.0.0.-.0.s.c.z.0.s.i.-.0.s.0.0.i.0.%.s.d.p.s.i.i.i.0.=.$.#.%.6.0.0.o.9 U U U M _ L _ q ",
"] %.%.$.s.s.U 5 ' s.d.c.m.m.m.s.-.=.0.s.5.<.0.=.p.s.s.a.0.i.i.0.0.0.0.i.:.:.6.3.=.p.i.6.s.d.o.o.-.D S ~ } -.$.O.0.]   M L _ ' L ",
"=.0.0.` 6.1.3 t -.v.N.v.v.d.v.a.[ 6.s.i.0.0.0.0.0.0.<.;.-.i.;.:.i.0.<.l.l.i.i.` 0.0.i.:.s.i.%.' 6.i.s.s.0.] ] 3.a.s.} 0.a.' i.` ",
"s.0.-.L P I M 3 3 3 I 9.v.s.d.s.%.=.i.0.s.0.0.i.0.0.i.=.-.s.l.0.w.0.0.0.6.3.s.-.s.p.d.v.0.i.%.%.:.6.@.6.=.L h } s.m.s.0.i.&.s.6.",
"o.o.%.L e o.o.b b b <.c.0.:.v.v.i.0.0.&.i.6.6.p.0.i.6.0.c.c.a.s.s.0.:.6.O.d.i.-.s.s.0.6.` ] [ } 6.} [ } %.[ d d.j.S.M.v.} p.s.s.",
"s.6.$.L _ =.<.U o.<.s.v.v.c.m.v.s.a.0.=.o.^ T 1.w.0.6.a.M.m.v.s.v.m.s.] <.u.u.p.> 3 B H C.6.&.' 6.%.L [ } } 3.m.B.M.v.m.v.m.m.0.",
"p.a.[ L o.$.c.C #.v.c.o.U U <.=.#.p.<.o.U ] U o.o.<.p.m.B.m.M.0.=.C C ] ] ] o.] 1 1 > 2 n [ 6.%.s.G ) F #.s.B.B.M.m.m.M.M.c.] } ",
"i.s.=.] C :.0.d.v.m.M.v.=.] a.s.w.3.%.<.6.0.p.s.v.m.m.m.N.m.m.` 0.c.o.C O.M M U 1 C t.<.O.6.3.} i.6.<.s.c.M.M.s.$.o.=.#.a.<.[ ] ",
"} [ =._ ] 0.a.c.m.v.c.m.m.s.a.s.5.O.=.6.3.0.a.s.s.i.6.0.i.v.a.} s.m.m.a.o.e e _ <.<.p.a.<.s.6._ =.s.s.P v.m.m.m.<.o.o.o.=.i.n ] ",
"0 h t ] $.} [ 0.s.d.v.v.v.s.$.<.O.Y ` 3.3.6.i.i.p.0.} L } 6.=.s.v.v.i.6.[ _ %.` ' 6.s.d.6.6.p.6.d.s.u.6.d.s.c.v.m.v.s.i.0.-.s.s.",
"] ' %.0.i.} _ =.U 3 a ! O.o.=.6.-.%.O.] N $.=.0.p.p.6.%.=.%.-.d.s.6.' [ _ -.p.%.%.' 6.p.` . i.m.s.p.%.i.i.6.0.s.v.p.0.0.} 6.p.m.",
"O.6.0.%.[ %.' <.n , 3 o.0.0.%.-.i.%.%.6.6.| E E T ! 1.=.%.0.0.} L q 0 _ &.6.6.@.M ] 3 a k j A.9.m.6.` 3.` 0.6.6.0.i.i.i.&.6.v.m.",
"O.O.O.] ` _ =.O.( X.O.=.] M ] L ] 6.0.6.[ n B n 2 3 U } L 0.p.<.] [ h - ` _ ] I U 0 w 9 0 n 5 C i.L _ - ` &.%.%.0.s.i.6.3.} ' ] ",
"_ 6.i.6.t ] -.| w.s.6.M n n e t _ O.i.<.X.i.i.6.=.} } -.-.6.p.d.0._ ' h _ t L M 4 ; : ' } Q 5 =.N V * d &.-.] O.O.] %.$.=.%._ 9 ",
"x ` } $.0 h ] ] $.6.$.} %.} ' 0 O.=.s.i.%.0.s.%.h 4 M t _ } } s.s.0.%.x : d h O.s.O.[ u. .K m y 0 x O x } %.&.p.s.%.[ } ] O.] { "
};
