/* XPM */
static char *_0601f0072064b0ae03b1e0c68168536jHSZsz7hlZbZX2jP[] = {
/* columns rows colors chars-per-pixel */
"64 64 256 2 ",
"   c #B4B29D",
".  c #BAB8A5",
"X  c #B8B6A2",
"o  c #B1AF98",
"O  c #BAB7A5",
"+  c #B6B49F",
"@  c #B7B5A1",
"#  c #AFAD96",
"$  c #B5B39D",
"%  c #B3B19C",
"&  c #B2AF9A",
"*  c #B9B7A3",
"=  c #B6B4A0",
"-  c #BAB8A6",
";  c #AEAC95",
":  c #B5B39F",
">  c #B4B29C",
",  c #B7B5A2",
"<  c #B2B099",
"1  c #BAB8A4",
"2  c #B6B49E",
"3  c #B2B09B",
"4  c #B6B4A1",
"5  c #A8A589",
"6  c #B1AF99",
"7  c #B3B29D",
"8  c #B2AF99",
"9  c #AFAD94",
"0  c #B3B09B",
"q  c #B1AE99",
"w  c #BBB9A7",
"e  c #B2B09A",
"r  c #BDBCAA",
"t  c #ACAA91",
"y  c #B8B6A4",
"u  c #AEAB94",
"i  c #B5B19D",
"p  c #A9A68C",
"a  c #B8B5A2",
"s  c #B9B7A5",
"d  c #B7B3A0",
"f  c #A4A187",
"g  c #BBB9A6",
"h  c #B4B29E",
"j  c #B7B6A3",
"k  c #B8B7A3",
"l  c #B0AE98",
"z  c #AFAD97",
"x  c #B0AD98",
"c  c #B1AF9A",
"v  c #ACAA92",
"b  c #B7B4A0",
"n  c #ADAA92",
"m  c #ABA993",
"M  c #A3A084",
"N  c #B5B29E",
"B  c #BCBBA9",
"V  c #ABA990",
"C  c #B5B29F",
"Z  c #A9A68E",
"A  c #A5A388",
"S  c #B4B39E",
"D  c #B3B19B",
"F  c #BDBBAA",
"G  c #ABA890",
"H  c #B0AD97",
"J  c #B1AE98",
"K  c #AAA78E",
"L  c #B2AF98",
"P  c #9C997B",
"I  c #C1C0B0",
"U  c #B4B09C",
"Y  c #B1AE97",
"T  c #ADAB94",
"R  c #AEAB92",
"E  c #B0AE97",
"W  c #ADAA93",
"Q  c #B5B39E",
"!  c #ACA992",
"~  c #ADAA94",
"^  c #ADAC93",
"/  c #B0AE95",
"(  c #ACA98F",
")  c #A9A791",
"_  c #ABA88F",
"`  c #B3B09C",
"'  c #B3B19A",
"]  c #B4B39B",
"[  c #BEBCAC",
"{  c #B1B09A",
"}  c #AAA78F",
"|  c #AEAB95",
" . c #AAA890",
".. c #B1AE96",
"X. c #9F9B7E",
"o. c #BCBAA8",
"O. c #BBBAA8",
"+. c #A8A58C",
"@. c #B0AE96",
"#. c #B6B49F",
"$. c #A4A185",
"%. c #A7A48B",
"&. c #BAB5A2",
"*. c #B7B4A1",
"=. c #AEAD96",
"-. c #B0AD96",
";. c #A7A58B",
":. c #ABA78D",
">. c #9F9C81",
",. c #A39F82",
"<. c #A8A58E",
"1. c #B6B5A1",
"2. c #B2B19B",
"3. c #B5B3A0",
"4. c #B1AE9B",
"5. c #B7B5A0",
"6. c #B4B19B",
"7. c #ADAB90",
"8. c #A19E81",
"9. c #AFAD99",
"0. c #A9A796",
"q. c #ABA88E",
"w. c #A6A489",
"e. c #A6A286",
"r. c #ADAC99",
"t. c #AAA78A",
"y. c #AFAC96",
"u. c #A2A08D",
"i. c #989683",
"p. c #B5B4A0",
"a. c #B7B4A2",
"s. c #A7A487",
"d. c #B4B099",
"f. c #ABA997",
"g. c #A5A391",
"h. c #AFAC95",
"j. c #ACA991",
"k. c #B0AC95",
"l. c #B9B6A4",
"z. c #B2AE98",
"x. c #AEAA94",
"c. c #A4A083",
"v. c #A5A38A",
"b. c #A9A688",
"n. c #A8A48B",
"m. c #C0BEAE",
"M. c #B3B19E",
"N. c #A9A68B",
"B. c #9D9978",
"V. c #A7A590",
"C. c #B1AD93",
"Z. c #A3A08A",
"A. c #A7A593",
"S. c #B6B5A0",
"D. c #A49F7A",
"F. c #A19F84",
"G. c #9B9776",
"H. c #9F9C84",
"J. c #A19F87",
"K. c #9A9574",
"L. c #A09D8C",
"P. c #9E9B87",
"I. c #9C9A82",
"U. c #9E9A7C",
"Y. c #A3A086",
"T. c #AFAC91",
"R. c #ACAA99",
"E. c #A29E7E",
"W. c #A6A283",
"Q. c #AFA38E",
"!. c #9F9C7A",
"~. c #9C9A86",
"^. c #AFAE9C",
"/. c #959270",
"(. c #B8B19E",
"). c #999678",
"_. c #A5A28D",
"`. c #A4A17F",
"'. c #999571",
"]. c #C3C1B2",
"[. c #B3B199",
"{. c #979576",
"}. c #908C68",
"|. c #AEA991",
" X c #959485",
".X c #8F8C7D",
"XX c #93907D",
"oX c #9D9C8B",
"OX c #949281",
"+X c #898776",
"@X c #9D986E",
"#X c #AFAB95",
"$X c #A19C74",
"%X c #A8A38A",
"&X c #868477",
"*X c #A9A58E",
"=X c #989788",
"-X c #B0AB95",
";X c #B8AF9B",
":X c #A2A190",
">X c #8C8A7B",
",X c #C49887",
"<X c #ADA98D",
"1X c #A5A38D",
"2X c #A9A585",
"3X c #A7A37D",
"4X c #9A9782",
"5X c #9A977F",
"6X c #B3AB95",
"7X c #BC9A86",
"8X c #C1A492",
"9X c #979376",
"0X c #949062",
"qX c #A7A78C",
"wX c #C7C6BA",
"eX c #A09E8A",
"rX c #9B9879",
"tX c #ADA490",
"yX c #B7B39B",
"uX c #B3A78F",
"iX c #948F6A",
"pX c #A4B38B",
"aX c #939073",
"sX c #B8AB96",
"dX c #A2A88B",
"fX c #918F79",
"gX c #918E6E",
"hX c #95946C",
"jX c #D0CFC5",
"kX c #99935E",
"lX c #9B9669",
"zX c #B7A592",
"xX c #A79A89",
"cX c #8C8864",
"vX c #C2A797",
"bX c #ABA188",
"nX c #B8A18D",
"mX c #A8A582",
"MX c #A49F77",
"NX c #C19280",
"BX c #AC9883",
"VX c #AAA597",
"CX c #ABB695",
"ZX c #C68575",
"AX c #ADA986",
"SX c #8F9C79",
"DX c #A18E81",
"FX c #93A37F",
"GX c #A49278",
"HX c #95937C",
"JX c #B48C7B",
"KX c #9E9581",
"LX c #A29C6C",
"PX c #B38B7A",
"IX c #B89079",
"UX c #AB9E83",
/* pixels */
"<Xt.3XkX$X2X7.T...7.t.L C.T.t.:.n 5 t ..2XD.W.b.s.N.j.6 d L AX`.s.s.`.q.7.( b.G./.P H.BX7XNXZXIX0X0X0XW.9 $ > q.T.> L 5 '.@XmX7.",
"3XD.$XkX$Xb.( V ( ( -X< l t ( t.b.N.q.uX2X@XrXHXi.BX%XV.; ..9 ( E.$XE.W.t.F.!.G.}.iXP.oXP.i.+XaXhXG.B.e.D $ z.E.!.L U x.c.N.0X@X",
"$X@XlX0XB.N.K p e.:.h.R ^ # J.P.I.P.M U.iXhX).fXXX4X:.V :.T.l < T.t.R R K.'.8.e.hX/.CX%   8  .'.s.^ D +   Y 5 E.K 6.Q % 6.i !.@X",
"D.`.`.,.E.$.N.5 c.5 ( ( ....7.X.rXI.).{.).9XfXSXpX`.D.5 t.( { 6 9 ^ l < e.B.w.Z ,.c.m z h b w.,.m.j / 2 o Q : 7 6.h.t.G # 9 p B.",
"D.W.c.W.c.!.K.c.W.b.N.t.( n +.E.5 A E.( L z.9 2 q.,.$.K V V k.z K $.T # A n.# ; F.>.>.Q.6XtXx.6X,XnXN.' q C 3.  S k.X.U.^ E < ( ",
"E.c.$.c.s.s.iXG.,.A Z K x & ^ v o c.,.< > z B I W $.+.m ; y.~ V.*X$.$.B.P %.y.l f 9XX.>.F.H.) ) i.#X<.) 3.= %   3  .eXE o 9 Y 3 ",
"X.$.$.s.p %.K.M M p R -.a b o 2 , R > X [.C.0 J Z $.v.tXQ.|.~ 4.zXQ.M >.P G N ` 4XF.M >.Y.v.v.5X).w.~ -.+ S.6.-.T c + D e V %.M ",
"X.$.A +.;.,.c.A x.k.-.z   b 8 1 1 *.- w < q.~  .%.%X7.G N.+.=.c 0.z $.F.H.OX.XM.q  .w.M v.%Xv.K.}.e.S (.6.  D p E N i $ > f iXcX",
"!.e.$.M ,.8.m 3 X - X D { N X w = OXOX>XxXnXk.<.%.K { W G | x l z G >.Y.G G | 3 ! ! v +.) } *XM K.).j.l Y ; # E T # L 2.d V +.v.",
"8.X.P U.A +.~   g ^.0.0.r.=.0.0.0. X X>XOXXX.X| t k...R h.9 R 7.p >.>.Q.Q.K Z v +.v y.Z p +.M $.f bX%Xn.h.2.0 o 0 ! ) <.;Xd l.* ",
"e.F.A R [.7 ` d y 1 s 9.m ,.>.Z m oXf.S 3.h $ / ( R R 7.t q.( |.V Y.v.+.w.%.A f +.<.v.>.M Y.5X5Xi.~.I.e.K tX6Xb . (.zX_.r.(.l.a ",
"A s.p n.#X0 p...c % b h G X.f ;  .+.J j l.a.< q.qXK w.;.:.:.n # q.+.) v u } A ;.9 f P ).P I.f ;.) %.F.Y.;.P.eX4.f.:X:XA.9.oX0.0.",
"A A M E.;.^ :.c.$.v q U 9 ! q h u n.Y l., b 9 7.J T.N.qX .( J   R / E Y # 6 x.R 6 $.X.H.J.Q.K %XY.>.$.+.m H ;XC j 4 R.g.g.L.BXQ.",
"s.T K Z _ { H Z l v z.& c J U i -.x.y.  6.h.2.p.b -X( p :.n D N / [.N D 0 ] 6 W G w.Z.<.| 2.f /.{.rXB.e.;.) x & `   b   u.i.OXJ.",
"$.# > 7 2.i i { u.~.i.f R o d..._ P._.%XQ.7XZX7X;Xh # K _ ( -.-.9 L 5.yXL L [.@.m G T o { p.+.P %.w.P F.<.+.) # z m <.R.dX2.3 I.",
"R t < % *.3.: M.f.i.~.>.8.>.J.J.X.5XI.H.i..XXX<.: @ 0 8 & |.t @...  2 5.' N $ 8 R -.= 3 6 E ! ; sXzX|.y.m %.M Y.V.<.) H c F , f ",
"Y K n 8 = 4 U 0 C 9.^ j.v rXgX/.>.OXFXpX% - w s - o.1 j @ 9 K Y 8 3 J   e 2 + 5.< Q S.> z.! ( T f.0.A.M.~ 4XJ.;.|.Q.bXT T nXsXu.",
"A X./.M j.x.; L % Q ' 8 t 8.>.A :.z.U @.5.O.F [ o.. * O * e j.> p.C   D 2.8 N a $ Q + > E +.qX=.J x & q eX;.9.0.OX4XfX).P +Xi.OX",
",.K.cX}.8.$.Y o e.( H -XA Y / V p K % [.{ , o.g . * 4 @ a.l @.Q p.N     Q 2.c < D > d.L ..; t @.x { J } %.q { N -XI.~.9XgXXXSXI.",
"s.w.'.}.P G 0 J 8.8.$.U.n $ i o 5 s.: X 4 : s a *.3.1.Q % 6.0 2.6.2.  % % 3 Y { < $ l k.R | W q 6 q C +.G : c { l ~ 6X9 w.8.M u ",
"R ^ e.n.G.$.J v aXaXgXGX8XsXC U 5 $.k.* X * + =.n W # J x   % 6 l z e & J 6 6   % p.9 t Z W h.% +     K M W +.W z r.2 y + 0 p M ",
"z.& 6 : K rXm ) _.u.L.oX X+X&X.X%.5 s.h = , + v F.T z  .n z & 2.% h.H 6 8 & 0 6.% q V H J 9 t E > ' 0 e p 8.w.  O.O.k k $ i > q ",
"Y D i = N m >.Z.~.dXCXp.[.$.e.s.e N % 3 Q =   m G   % ^ 3 z h.{ % T G ~ ` 0 e 8 : d.9 / 0 e o ..8 8 < < # +.} @.o.g l.1 . w * C ",
"; ` S C e 2.~ t Q + C M.s s % 3 7 Q , h n & d U e 7 0 l 3 > c Y H y.G ; < & : p.S 6.L 9 6 { o 6 Y < o # ; < & H % s X M.g. XA.+.",
": : % 3 Y 0 ( ( ` 1.] i * l.s w @ : = 5., l.a = % 2.x z & & l q q l z z.x c E x 3 3.U  .9 8 J @.y.G ;.W T , w g 4 b N 7 6 V.Z.,.",
"d.Z P P K |.c.%.i a = Q l.Q s [ s y a y O - j , 3 l h.k.R ! x 6 3   [.` % E ; & : = x.Y. .; o H u _ V j.n 7 O g l.= R +.rXgX$.-.",
": N.G.A # n v # ` s s 1 p.= X s * w - X * r s , S D z.| n W =.c b p.N % i | h.4.3.  Y E n p ! z T K 9 @.E e *.X @ = 8 x.$.K.K.w.",
"G m f Z.Y { 4.S d a s - o.X S.a = @ - + l.B o.b $   6.2.6 6 % ' @ * a   Q S & D   e H & # w.B.M +.7.T 3 4 S.o < X @   U 7 K /.G.",
"$. .n { 0 D p.b 4 *.k s r - X 4 , = 4 U - - 1 l.N Q = . . a S.0 p.1., 4 , @ : N % T  .# ; p P U.G.$.} R + : ; f ! D U U $ & n.w.",
"u E z.h @ i h p.w s a l.w w - s 1.h H  .+.Z % O d N a w O.y * a : S k y * X = 3.o p  .l V ;.K K f e.%.} V ( l K f @.L 9 ; u +.A ",
"n 9 ..  *.S , N @ g *.i *.1 a a = q n.; ! v.t % *.* * g - O k 1.: 2.4 a @ b = D J ~ z x ,.$._ v V  .w.8.P %.c e W H J n X.9XX.n ",
"V n { c i H o { > : 3.S 3 X @ j 2 x ~   0 =.G  .6.- O s * w s k   } G W v T #X6 c q H j.U.rXZ v v K 8.}./.rX>.p ;.; -.T K.cXM n ",
"^ ; p.2.# R | -.n x - , = 6.D 6.3 H 6   2.E W h.z.a * - s w O , >  .+.G p rXM T & 6 z A U.).%XV # A 9X).M ,.X.rX}.U. .v ).X.~ 7.",
"l -.U 0 9 p +.v n & * 1 4 6.J E 6 8 2.D l z # l 0 = + 4 , j 1.= : 6 K x.; ; _ ; # |  ._  .! 9Xw. .X.P s.G +.%.,././.X.w.$.-.8 } ",
"# ; G ( 9 |.( -.@.l 6.$   % u ~ e 3 2.D H y.3 6 e a.N a X , > e   3 h.E 6 e =.j.;.p -.S   ; rXG.X.%.W j.l 3 q l 8 K $.M } z.z.-.",
"u G  .J Y C.R h.; z R t H > & o e 6 o l h.J   % 7 l.X X : h + u } l l & > > 2.%X8.u 2.  2.6 u A {.} 8 =.D h % 7 * % G +.^ ..d.R ",
"l =.; n #Xx.W 3 ) # S q   $ 0 o L 9 E 0 S h = j s o.- * @ p.  R ;.; 8 & % 4 @ h = h :   q 6.,   N l.+ 0 = 4 : + , h # ( W XX+X;.",
"! & 6 ^ ^ v t % @.{   L @.+ 6.% > < 2.> 5.Q N E e s o.* a p.> j.p -.q J 0 j X @ = Q + N 0 S k S D O - b j + z.9 R ; G w.;.%.U.P ",
":.].wX* i z.T wXX 1.C 9 7.k.6.E * 1 6.X = 3 < G n.h [ B O @ 2.+.o N Q -.7 = = X X p.N 8 D X *.7 x & d p.z -.| K p %.f %.;.p %.X.",
"j jXjXB s 3 ; w - X 4 yXC.0 c x.B I F , ' [.6.;  .e s r B d z qXD + + + a.4 S 1., p.h % % = N e c & l l z =.~ %.w.n.+.K +.G p A ",
"I I o.. $ > o p.- : : 4 2.=.k.e O.[ [ b 6.L = +   y.3 h D H ; ! d 2 $ b = h p.=   % D 3 h c c ;   p.- ; u :.G n.;.%.p *X;.K Z w.",
"[ w 1 M.2 3.I S @ C S + l H + y + j a X w k o.O.2.3 { -.Z v.v c y * X 5., , b S : : e 8 6 J ; y.| T H u G  .} +.T qX<.} G ; j.q ",
"[ . X y , = jXI C l  .+.W ~ # s 3.q o y m.I [ a + { S ` G z v X , - w a 1.*.*.= + p.% q l # ; W u u W !  .} V G ; *X-Xq 3 6.x.| ",
", s s - + } , wX3.6 _ ,.w.G V ! J x z 1 wXm.F j p.= Q a.l.X Q 1.@ a 1.: % 7   h + N % l Y l m %.T T m v p *X .t 0.Z.P.~.u.oXP.J.",
"c , * s   # 0 x.p.h Q 6.v h.v K } 6 f.l w w = + 1.a k y y y , j @ 4 h h 3 e 3 3 6 2.6 o Y ; W ~ ;  . . .+.n.p V   h g.=Xu.~.H.F.",
"=.r.4 h q # c d.-.= a.X n y., z >.n h.j.#XG %XS . . - s s X @ = 3.    % c q D 6 # q E y.x l ; & ` R t G G +.j.^ l , @ { W ;.,.e.",
" .R { J T U i 2 N < 2.4 7 S.1.S h.,   8 &.< e a.- w - y C h = p.C p.l.5.] & { q z z #X~ z z v 6 = J 7   0 ; N = *.b O 9 p n c.!.",
": s , r.z a.y O s   U s s w g O O.o.w F I [ r r w O s X U 7 a F a y [ k b 0 L -.#Xo 2.% 7 l n T Y l : 4 + >   J Y J   G j.J b.D.",
"= g - 4 :XM., O - . j O.F m.I o.O O.g I ].m.m.].].k r B O X X * o.j S.6 x & { y.^ { p.* j y S E G h 4 @ @ h % -.Y H l n.q.uX<XD.",
"- - l.. [ 4 + - F w 1 - F I ].].I w w F [ F B I I r I r - X *.= g @ 2 q e ` U 2 ,   = X l.* + % < 9 l @.6.N & z u.eXZ.H.$.J.M $X",
"O.s *.@ . = b O.[ m.I [ r I I [ o.B B r B F B o.[ r r B k N S D X * o.1 y   2 o.F X @ , s 1 , ` l -...n q.& { i z._.H.H.F.f n.,.",
". X @ = = $ X X O.m.I I I [ [ O.F [ r F F o.o.w O.w . . 4 $ p.+ X , m.].- y 3.2 . a.Q 1.a X 4 c 8 , k p.3 n.2.7 % > ( & % b.[.2X",
"@ *.5.: l.w M..X.X.XxXvXr F o.r r o.w g g . g * w - s X 1 . 1 Q + Q 2 D * O S z.X k O.m.& e 6 0 *.X = S 3 M 9 1.N l.S & < T.] ..",
"V.V.f.l M.0.g. XOX X^.a.^.R.s B F w * 5.a g g w . * X X w . r 4 ,   N D d l.: ' O g [ g w.A K _ # z.o e c x 7 X B m.1 5.( 6.2 > ",
"2 c ^.` r.R.r.L.:Xr.o.* l.w o.B w *.z.0.g.tX,X8X;X2 X a o.* s - o.* b E L Q O C &X>X=XDXNX..^ 5 # %   @ > : a s o.. , X j s X 8 ",
"- M.R.r.~ 9.C oX0.1.3.g.L.u.r.0.f.s R.g.u.u.L.g.g.R.B r B l.1 s 0.L.L.u.%._.:X:X&X&X&X+X=Xe -.l @ = p.@ = w B F - l.* . . C _.V ",
"y - s a.3 VX4.a.a O o., 0.:X% 4 , w ^.^.Q N b : b g O.1 w l.&.* &.4 A.L.V.I.P.L.&XoX^.r.f.  ' ^ 6., a s * F - h 0.A.0.0.M.R.} v.",
"M.= N + ^.4.h a l.4 C X 1 g 1 - r B X +     7 N $ 2...L 3 S.&.w * O X ` g.P ).Z.r.r.h * X = ' ,./ * X k X * a a r.:XA.g.f.3 i.:X",
":   2.D C l.* . X 2 o.a.&.(.VXz A.xXbXuXvX+ > ' 6.L :.8.q.2 O 2 @ 5.< k.K $.j.;.5 o i @ * - l.C.S.* * @ 2 2 3.b k @   2.& # h h ",
"..6.@ [.;XyX3 r.L.>XJX7XA.g.~ -.=.m ) u.=X0.' ' ] 6.9 n h.Q @ 2 yX@.5 K e.9 d.R t t.9 6.5.1 g 1 g k 5.S.e k.L $ b 6.8 z.q.-.6.a ",
") H 6 R <.T 4 q i.+X>XA.6 6 v 9 < x R.c H uX7X,X,X,X8Xj a d c V 8.B.'.W.9 sX6X^ ~.Z..XPXNX,X8XvXF X d.T.s.L -.o 8 [.0 ' 9 / = X ",
") ) ) <.%.$.~ V.dXpX) f.u.P.v.J.1Xl J e *X4X~.i.+X>XL.5.@ $ 6.z _.qX!.'.%.Z.1XV.Z.K.fX9XK.KX.XL.o.2 mXlXs.9 R R 8 2 < 6XC.( t.<.",
"W.C.[.-.2Xt.9 uX;XN -XP.i.i.5XP e.) 2.o pX' 2 ' L z 9 ..1 L d.b & Z.t.D.e.X.H.J.fXhX@Xt.z l r.yXd.C.lXMXT.9 V.) ) 1Xj.V u T $.aX",
"MXmX7.C.7.<Xh.V. .@.m ( < 2.N.'.7.D Q < R J d $ E.gXI.P `.( <X] + z.7.`.@X$X3XC.+ & t.] g 5.AXLXMX3XkXMX<XR h.6.N T K  .1X) <.dX"
};
