/* XPM */
static char *_86963fdca424572dc9811fe8e341972qiKfyWQaFvmkkRjo[] = {
/* columns rows colors chars-per-pixel */
"64 64 227 2 ",
"   c #9D7952",
".  c #CEB52F",
"X  c #CABB3C",
"o  c #CFC033",
"O  c #CDC23D",
"+  c #D3C537",
"@  c #D2C43B",
"#  c #DCC339",
"$  c #D6C93E",
"%  c #D9CE3D",
"&  c #9C9657",
"*  c #A59E4E",
"=  c #A19B5E",
"-  c #ABA359",
";  c #ABA35B",
":  c #BEB759",
">  c #8D8A6B",
",  c #938F6F",
"<  c #999465",
"1  c #9D9A6C",
"2  c #999476",
"3  c #969378",
"4  c #9B967C",
"5  c #9E9B7C",
"6  c #A39C64",
"7  c #A39D6B",
"8  c #A29E72",
"9  c #AF9F77",
"0  c #A29E7A",
"q  c #9EAB75",
"w  c #A8A365",
"e  c #A6A36D",
"r  c #ACA66C",
"t  c #AFA86D",
"y  c #B3AB62",
"u  c #B3AB6B",
"i  c #B7B06B",
"p  c #B9B268",
"a  c #A6A276",
"s  c #A9A474",
"d  c #ADA874",
"f  c #A5A17B",
"g  c #A9A67D",
"h  c #ADA97E",
"j  c #B3AD73",
"k  c #B3AE7B",
"l  c #A2BA7F",
"z  c #B6B073",
"x  c #BAB475",
"c  c #BEB974",
"v  c #B5B17D",
"b  c #BAB57D",
"n  c #BEBA7C",
"m  c #CCBD41",
"M  c #C3BA57",
"N  c #C5BA55",
"B  c #CABF5F",
"V  c #D39777",
"C  c #C6BD62",
"Z  c #C4BC6D",
"A  c #C4BD73",
"S  c #C3BC7B",
"D  c #CDC145",
"F  c #CDC44C",
"G  c #D2C545",
"H  c #DCC546",
"J  c #D6CA45",
"K  c #D9CE44",
"L  c #D2C64A",
"P  c #DBC748",
"I  c #D5CB4C",
"U  c #DACE4C",
"Y  c #DDD246",
"T  c #D6D34B",
"R  c #DDD34C",
"E  c #CDC354",
"W  c #CDCA54",
"Q  c #CDC45B",
"!  c #D2C654",
"~  c #D5CC54",
"^  c #D9CE53",
"/  c #D9C35B",
"(  c #D4CC5B",
")  c #D9CE5B",
"_  c #DCD353",
"`  c #D5D05C",
"'  c #DBD35B",
"]  c #E3C647",
"[  c #E0D446",
"{  c #E0D74A",
"}  c #E1D849",
"|  c #E0D755",
" . c #E0D75D",
".. c #CCC464",
"X. c #CFC864",
"o. c #CDC56B",
"O. c #CBC46C",
"+. c #D0C765",
"@. c #D4CC63",
"#. c #D9CE65",
"$. c #D5CD6C",
"%. c #D8CF68",
"&. c #D7D063",
"*. c #DBD263",
"=. c #D7D06D",
"-. c #D9D26B",
";. c #CCC573",
":. c #C6C17C",
">. c #CBC578",
",. c #CBC47C",
"<. c #D5CD72",
"1. c #DBCF71",
"2. c #D5CE7B",
"3. c #D7D074",
"4. c #D9D274",
"5. c #DFD872",
"6. c #D7D07C",
"7. c #D9D37A",
"8. c #E0D764",
"9. c #E0D963",
"0. c #E0D969",
"q. c #A59E80",
"w. c #A5A382",
"e. c #ABA683",
"r. c #ADAA83",
"t. c #A5A58C",
"y. c #A9A58A",
"u. c #AEAB8A",
"i. c #B1AD85",
"p. c #B2AE8A",
"a. c #B9AA88",
"s. c #ADB086",
"d. c #B6B384",
"f. c #BAB584",
"g. c #BDB985",
"h. c #B5B18C",
"j. c #BAB58C",
"k. c #BDBA8C",
"l. c #ADA992",
"z. c #B1AF93",
"x. c #B5AD94",
"c. c #B6B392",
"v. c #BAB693",
"b. c #BDBA93",
"n. c #B5B699",
"m. c #BBB69C",
"M. c #BDBB9B",
"N. c #A8A3AA",
"B. c #BEBBA2",
"V. c #B6B1AB",
"C. c #C6AB8A",
"Z. c #C9AE8A",
"A. c #C1B384",
"S. c #C2BC85",
"D. c #C2BC8D",
"F. c #C2A891",
"G. c #DBA891",
"H. c #CAB793",
"J. c #C2BE95",
"K. c #C8B996",
"L. c #C2BE9B",
"P. c #CDBC9B",
"I. c #D6B69A",
"U. c #C3BEA2",
"Y. c #C8BDA6",
"T. c #D5BDA1",
"R. c #BCC38F",
"E. c #BAC398",
"W. c #B9D195",
"Q. c #AACBAE",
"!. c #B9C2A8",
"~. c #C4C085",
"^. c #CAC484",
"/. c #C5C18C",
"(. c #CFC98A",
"). c #D5CE82",
"_. c #D4CD8B",
"`. c #D7D187",
"'. c #D8D182",
"]. c #D7D189",
"[. c #D9D48C",
"{. c #C4C195",
"}. c #CBC694",
"|. c #C5C29C",
" X c #CAC59D",
".X c #CFC99C",
"XX c #D4CE92",
"oX c #D1C99C",
"OX c #D7D396",
"+X c #D8D193",
"@X c #D6D19D",
"#X c #D9D59E",
"$X c #C5C3A3",
"%X c #CAC6A3",
"&X c #C9C6A6",
"*X c #C7CEA2",
"=X c #CCC9A6",
"-X c #C6C4AA",
";X c #C9C6A9",
":X c #CAC6AB",
">X c #C9C6AD",
",X c #C7CCAD",
"<X c #CDCAAA",
"1X c #CDCAAB",
"2X c #CBC9AE",
"3X c #D2C6A5",
"4X c #D0CBA5",
"5X c #D4C5AB",
"6X c #D1CDAD",
"7X c #D6D2A2",
"8X c #D8D4A5",
"9X c #D4D1AD",
"0X c #D9D5AC",
"qX c #CBC7B1",
"wX c #CECBB2",
"eX c #D2CEB2",
"rX c #D8CFB6",
"tX c #D2CFB8",
"yX c #D4D1B4",
"uX c #D9D6B5",
"iX c #DBD8B6",
"pX c #D6D4BA",
"aX c #D9D6BC",
"sX c #DAD8BE",
"dX c #DAD7C0",
"fX c #DBD9C2",
"gX c #DDDBC9",
/* pixels */
"}.D.b - j g.{. X=X X{.L.d.S.{.|.$X|.&X&X|.J.|.|.|.%X6XeXyX2X%X|.$X$X|.;X=X2X;XL.b.M.L.Y.T.I.G.I.j - * k.b.yXyX{. X&X%Xk.j u S. X",
"n b j - k k.J.b.L. X=Xb.h.b.|.|.|.$X;XL.h.k.L.M.U.%X<X;X2XeX2X&XL.J.|.|.&X$X$X|.h.j.B.B.B.m.z.c.f.d.k d.m.yX=Xv v |.$XL.f.b.- y ",
"i u u w k j.k.b.k.|.=Xh.h.M.v.M.M.M.L.b.j.j.b.m.m.M.$X$X$X;XwX2X;X$X;X;Xb.b.$X$Xj.b.,XwXwXwX;Xv.|.&X$XL.b.<XD.d.b.$X&X;X=X<Xv y ",
"x f.f.f.v f.k.j.k.{. Xp.h.M.L.v.v.M.v.j.v.j.c.b.$XL.J.$X$X$X2X>X;X-X>X2X$Xb.$X-XL.U.-XqXwXtX$XL.dXwX|.L.b.yX;X$X$XL.b.b.$X&X|.z ",
"x g.g.k.f.k t f.g.D.{.a h.b.L.M.$X|.L.&X2X2X&X-XU.L.L.$X$X-X;X>X$XU.>X>X$X$X>X>XM.M.M.;X2X;X>X2XI.K.h.b.M.eX&X$X$X|.i.k |.$X&X|.",
"b k.k.g.k.k.6 j f.k.|.a i.U.$X$X>XL.L.2X2X;X$XU.m.L.L.$X-X-X-X$XY.L.L.b.v.Y.>X>XU.v.M.L.U.U.-X$Xu.b.p.c.U.eX&X&X$XL.h.|.|.L.$X&X",
"b k.k.D.J.b.r f.j.|.%Xh h.m.L.$XwX;X2X-X-X;X>XU.B.U.$X;XB.U.;XqX;XY.L.L.M.-XwXwXB.|.$XL.$X-X$Xi.s r.c.v.U.yX6X%X$X&X;X|.$XL.b.j.",
"v k.D.J.b.d.f.f.L.=X=Xv.v.v.v.U.wX2X2X2X;X&X;X$X$XU.&X>XU.m.>X>X-X2XU.U.U.m.n.qXwX>X$X$X;X&XJ.a < h M.L.L.yXeXK.<X6X<X&X&Xv.e & ",
"z k.k.j.d.d.b.k.k.%XeXM.c.v.c.b.=Xl.z.z.U.%X;X$X;X2XeXY.B.M.2X2XwX2XM.U.2XwXwXwX>X2XwX2XwX$Xc.h 7 8 h.M.M.&X<X<X&X<X<X&X2XL.b.b.",
"f.v k k j.v.b.t f.|.B.c.h.p.u.z.m.t.l.z.U.$XB.wX2XeXyXeX2XeXpXeXeXeX;X2XtXwXyXpXeXeXpXwX&XL.r.g g e.i.p.v.eX6X<XeX%X$XL.eXeXeXpX",
"D.f.k.L.%X$Xv k k.wX&Xv.c.h f r.c.c.-XyXyXaXaXpXyXyXyXeXyXaXaXaXaXyXaXaXyXeXyXyXpXyXeX<X|.h.f 0 5 f f i.j. X3XyXaXrXT.L.>XeXyXpX",
"k.D.{.J.$XP.A.b |.;X%Xp.h.g g h.h.b.<XeXyXyXaXpXpXpXtXyXaXaXdXfXaXaXaXpXaXyXyXaXaXeX&X&X$XL.h.r.e.e.g e.h.h.v.wX-XB.M.$X2Xc.$X-X",
"D.k.k.b J.Z.a.d k.%XP.v.p.p.h.h.h.j.&XeXeXyXaXpXdXaXpXaXaXaXfXgXaXfXyXeX<XyXaXaXaXyX2X2X;XL.v.r.g a g p.c.<XeXrXpXyX;XM.B.c.C.P.",
"D.%X|.|.K.P.v.{.|.%XP.e.g i.p.p.p.L.&X2XyXpXaXaXaXaXaXaXaXaXgXgXfXaXyXyXyXaXdXaXaXyXeXeX<X=Xh.1 1 1 8 r.i.|.<X6XeXeXyXeXm.u.w.j.",
"k.<XyX6X%X%X<XwXm.u.u.e.e.p.i.p.h.e.L.L.6X5X5XrXdXsXfXaXaXaXsXaXaXyXaXfXfXfXfXyXpXyXyXyXwXyXL.8 g g 8 g h.{.|.<X<X$XL.;XE.9XeXi.",
"%X X6X&X%X2XyXeX$Xy.p.g g f f f g f p.L.$X$X2XpXfXfXfXsXgXaXaXaXpXaXfXgXfXfXaX6XeXaXpXyXeX;Xv.p.a.a.p.c.c.J.k.k.|.L.|.<XwXgXpXk.",
"<X|.|.J.&XyXeX6X<X|.$Xh.u.a < < g f l *X9XyXaXyXaXdXaXaXaXaXpXdXfXfXdXgXfXdXyX=X<XpXsXaX<X$Xh.p.u.e.u.m.v.r.j.J.%XP.D.&X&XI.3Xb.",
"b.v w u d.$X%X X X&X&Xh.i.g a r.h.L.<X<XyXpXaXpXpXaXaXpXaXfXaXfXfXfXfXfXfXsXaXyX6XyXaXyX$X|.i.r.p.p.h.v.e.L.2X$Xq.e.8 d k , u.w.",
"f.t & = t d.b.{.k.|.&Xp.g p.p.h.h.J.<X6XyXyXpXpXaXpXaXsXfXfXaXfXfXaXaXpXfXfXsXaXyXyXpX9X&X$Xh.i.e.h.h.r.p.<X<XyX=Xp.p.s = f q s.",
"D.J.r = k j.j.b.f.f.k.a h.p.p.p.i.k.<XyXyXyXuXaXsXaXfXfXfXgXfXfXfXaXyXyXaXaXyX6X9XyXyXyX<X$Xv.p.i.p.h.e.h.yX<X<X<X&X3X=XJ.f.k.&X",
"%X|.k d.d d.b.h.7 6 < 9 a.p.i.e.i.h.&X6XyXyXpXpXpXaXaXfXfXfXfXfXfXaXfXfXsXeX=X4XyXpXpXyXeX$Xh.h.h.p.u.r.i.%XJ.$X&X;XyXaXyX6X{.k.",
"%X|.f.d.b.k L.L.L.M.v.y.4 > > 3 p.j.J.6XyXpXaXyXyXaXsXaXaXdXaXfXfXsXsXfXyXeX<XpXfXaXpXyX6X&Xh.i.h.h.e.p.i.d.k.<XaXaXaXaXyXyXyX2X",
"|. XJ.J.b.L.j.b.p.E.*Xh.i.f g r.v.=X=X6XpXaXaXyXpXfXgXsXfXsXsXfXfXaXyXyXyXyXuXsXfXsXaXyX6X=Xh.i.h.e.w.p.h.D.S.|.dXaXaXaXaXfXaXyX",
"{.=X=X%Xb.J.|. XeX<X=Xh.p.r.h.h.L.=XeXyXyXpXpXaXsXfXfXfXfXaXaXaXaXpX<X6XyXpXfXfXfXsXyX9X6X}.c.h.u.5 e.i.c.<X<X%X=XpXpXeXB.t.U.{.",
" X=X<X%Xk.{.|. X<XyX<Xc.h.i.i.h.L.<X6X9X9XyXaXaXsXfXfXfXsXaXaXaXaXyX=X6XaXsXsXaXsXaXuX9X6X Xb.p.f 0 g p.h.yXaXaXeX6X6XyX<XL.b.f.",
"=X|.k.k.{.|.k.J.6XyXyXv.p.i.r.i.j.$XyXyXuXyXuXiXiXaXaXsXaXaXsXsXaXuX6X=XuXaXsXiXsXsX9X.X(.^.k.r.e.r.r.i.h.<XyXpXeXyX%XJ.j = k.<X",
"eX|.k.L. X|.|.&X<XyXyXM.p.r.i.p.p.L.=XyXpX0XuXiXuX0X0XuXuXuXaXaXuXuX9X.X9XuXuXuXiXuX@X).X...A v e.e.p.h.v.<XeXyXyX6X6X%Xk.t t J.",
" X&X|.|.&X&XJ.<X2XeXyXM.h.i.e.h.h.$XoXoX7X8XiX#X6._.+XOX7X0X8X0X@X0X8XXX7X8X7X8X#XOX<.$.X...: i g r.r.h.v.<X%X<XpXyX6XeX6X|.w u ",
"k. X%X<X;X=X%X2XeXeXyXM.c.h.i.h.b..X_.(._.].3.*.) @.-.3.7.`.`._.].].@XXX,.`.7.=.=.@.( @.@.X.M p 7 s r.p.h.$X|.k.%XeX6XeXyX<Xv.J.",
"%X<X=X<X<X&X<XyXyXyXyXM.v.h.h.j./.^.,.;.o.Q &.&.' ' &.-.-.1.$.$.1.@.@.$.o.4.4.=.$.( ( @.@.Q ..Z c x h u.u.|.;XL.k.<X6X=X&X&X{.k.",
"%X%X%X<X6X=X6XeXeXyXyXU.j.p.c.k.^.,.O.o.( ! ~ ' ' ' ' &.-.3.<.$.@.=.@.@.4.7.=.@.@.$.$.@.E Q ..O.n d.g g a J.=X2X%XN.V.U.v r v %X",
" X X%X<X6X=X<X<X6X6XeXM.p.p.h.S.>.;.+.@.@.~ ~ I _ ' ' &.7.7.4.3.3.$.$.$.$.$.1.3.4.3.$.@.N N ..o.;.n s < 7 k d.{.b.&X<X&Xt & g. X",
" X%X<X<X=X%X%X=X%X2XyXM.v.h.f.:.$.+.@.@.( ~ ~ ^ _ _ ' -.7.3.4.2.7.$.<.$.$.Q $.<.=.-.$.( E N ..o.;.S 6 7 r.f.d.k & v |.|.d v &X X",
" X=X6X<X%X{.J.%X%X<XyXM.v.g.Z X.$.( ( ( ( ~ ~ _ _ ' ' *.=.3.4.6.'.7.1.1.3.3.1.2.3.1.$.+.+.X.M ..;.p 7 r.h.j.k.f.w - k J.k.=X6X|.",
"|. X$X|.b.j.b.J.|.=X=Xv.b.S.A o.$.@.( ( ~ ~ ~ ~ ^ ' ' ' ' -.7.7.4.'.4.7.4.4.3.$.$.$.@.+.$.$.M N C Z b i.c.2X=X<X6X|.k.k.|.6X6X=X",
"|.|.|.L.j.b.b.b.|.<X=Xv.h.f.S o.@.( ( ( ~ ~ ( ( ~ ' _ ' ^ ) -.3.<.].'.4.7.7.7.$.@.$.$.@.$.$.o.C M O.:.f.v.eXeXyXaXqXE.J.%X6X6X%X",
"$X=X|.J.J.b.b.J.L.<XyXM.v.S @.( @.( ~ ( ' ' ^ _ ' ' _ U I U ' 3.<.6.].'.7.7.7.7.7.7.3.$.$.X.o.O.$.>.S j.v.yXyXyXaXyX<X X%X0 < J.",
"b.;X%XJ.J.b.b.$X|.<XyXL.h.:.@.@.' ) ' ( ~ _ ' ( ' ' ^ _ ~ ' ' $.2.`.].XX].7.7.7.7.=.-.@.*.@.=.1.$.;.S k.b.yX6X=X%X&X|.f.J.J.k k ",
"c.wXeX|.$X|.L.2XwXpXyXv.i.b X.( ) ' ' ^ _ ' ' ! I ' ' ' _ R _ ~ ' 7.[.).7.7.7.7.=.&.' ' &.*.-.$.1.<.,.g.j.<X&X|.{.J.k.J.J.{.J.v ",
">XaXyX&X&XP.L.wXaXaXyXL.d.A @.( ( ' ' ' _ _ _ ~ I R R _ R R ' I ' *.*.' *.3.4.7.&._ _ ' ' ' ( %.=.$.;.;.g.=X&XJ.D.b.b.L.b |.|.k.",
"gXfXyX<X3XZ.$XyXdXyXeXL.S @.~ ' _ R R _ _ _ _ &.' R _ ' U U R U _ R R _ ' _ _ R R _ _ _ _ ^ ' _ Q o.@.X.S J.|.J.b.b.b.b.j S.{.b.",
"fXdXaX2XP.v.aXyXpXyXyX~.@.) ' _ R R _ U R _ R _ _ _ R R U J R R R _ { _ R R R R R _ R R Y R U _ ' ' ^ @.;.b.b.k.J.b.b.L.g.x {.2X",
"yXyXeXL.h.M.pXaXyX2X XC ~ U R R R R R R R _ _ _ _ _ _ _ U _ U _ R _ _ _ R R _ U R _ _ _ Y Y R ) #.^ ^ I X.b.b.J.|.b.L.$X X{.&X;X",
"<X6X$XM.v.b.2XpXyX<X|.L J U Y K Y R Y R R R R _ _ _ _ _ _ _ ' ' _ _ _ _ _ R ^ U ' *._ R R R ( @.@.N N L ~ v.L.J.L.x.c.p.f.z.h.j.",
"<X2XL.v.h.|.$XL.<XeXyX_ U R Y K K R R R R _ R R _ ' ' _ _ _ _ ' ' ' ' _ _ ' ' ' ' *.#.^ _ ' @.$.$.Q ( ~ ~ j.b.b.H.v.M.u.j.h.h.j.",
"&X;X|.h.c.|.$X&X&XeXeX' ~ R R Y $ Y Y K R U U R R _ _ ' *.' ' *.*.&.*.@.-.=.=.=.$.<.$.#.' ) $.3.$.X.E ~ ~ j.L.H.H.;XyX=X%XJ.f.S.",
"|.=X|.b.L.&X%X<X<X<X-X( _ R R R Y { Y Y R Y Y R R R R _ _ _ _ ' ' *.-.*.*.*.-.-.' ' ' _ ' ^ ~ -.$.~ W ' ( M.U.P.%XeXaX%X{.%Xg.x ",
"yXeX|.b.%X%X|.=XeX6X2X_ R R R R { } [ Y R R Y R R R R { R R R R ' _ _ _ ' ' _ ' _ _ _ ' ' ~ ( #.@.( ~ ' ' =X&Xb.{.<XyX|.%X<X/.x ",
"6X<X X%XB.<X<X<X6XeXeXR { { { { } Y Y Y R Y R R R R { R Y R R R R R ^ R R _ _ _ _ _ ~ ( ) ' ' &.( @.( ' ' 2X%Xk.b.!.=Xk.|.oX Xx ",
"eXeX=X6XpXyXrX$XyXpXpXR { } R { Y K Y R R R R Y R { R R R R Y Y R R R R R R R _ | _ ' ' ' ' ' &.@.( ' _ ' eX&Xj.v.h.h.h.j.j.k.i ",
"eXeX6X<XpXyX;X$XyXdXfXR _ _ { Y Y _ R _ U R R Y { [ Y R Y R Y Y R R R R U U R U _ _ ' ' *.*.( ( ' B N ! ^ 2X&XL.|.v.  h.h.k.J.f.",
"yXyXyX&XeX5XM.%XyXfXgX*.' _ _ R I ' ' _ _ R _ R R R R U Y Y K R R R U _ _ Y R J R _ _ ( *.' ' ~ &.&.' ' ' k.k.{. X%XL.&X2XJ.6X/.",
"yXyXeX%X3X5X$X4 4 4 F.) _ R R R U ( *.*.' _ _ _ _ _ _ R R R _ R R R _ R R Y R R _ _ _ ' ' _ _ ^ ) ' ^ ' ( b b D. X<X2X2X<X$XyX<X",
"U.U.&X|.L.U.M.y.w.t.qX' ' R R _ ( #.-.*.*._ ' *.*.' _ ' ' ' _ _ ' _ ^ ^ U _ R R _ _ ' ^ I ~ ( ^ ' U ~ ~ ( S.x &XQ.eXyXeX|.6XyXyX",
"yX2X;X$X|.-X;Xv.M.2XaX' ' R R R _ =.4.=.@.) / 1.-.4.4.-.0.9.' ' ' 8.' ^ ' _ R R X X G m ] _ ' U ' ^ L ~ ( }.|.=XwX2XwXyXpXaXaX6X",
"pXyX$XL.$X$XeXn.-XpXpX~ ! L R U ^ 3.3.1.+.@.( @.@.-.4.5.0.8.9.' ' ( ( ( ~ ~ ( I X X X X L I ' ^ ' Q W ! ` }.6X2X>X;X2XpXaXpXM. X",
"yXyXeX;XU.Y.2XyXyXaXfX*.( ! R _ *.*.-.4.*.' ' *.*.0.*.0.9. . .^ ' ' ~ I ~ J J J X J Y R U _ _ U ' ' ) _ ' 6X<X$XM.M.U.-XeX;X|.b.",
"<X<X6X%X$X2XeXyXaXyXyX' _ ' _ _ ) ( ' ' ' ' ' ' ' ' ' _ _ _ _ U _ | | R K @ + J R Y Y R R _ ' J ^ ' _ L *.yX6X<X$Xm.B.M.-XeXe.M.",
"{.|.|.%X<X6X<XyXyXyXaX-.' &.~ ' ( ! ^ ) ) ' ' _ _ _ U J U R R R _ _ R R K J Y K K R R R R R _ _ ' _ ' ' *.4X6XeXwX2X;X=X<X<XyXyX",
" X%X6X6X6X6X$X=Xv.2 V / ~ ( @.) ) ^ ~ ~ F ^ _ _ _ _ R R R R R R R R K K K Y R Y Y K Y [ % . R _ _ _ ^ &.&.}.%X<XeX=X&X&X{.=XeXpX",
"|.<X<X%X|.&X<X2Xe.> 2 ;.=.=.( ' ' ^ _ _ _ U P H H H U R R R R R $ $ + % Y [ Y K $ J @ # # # ] U _ _ U ^ ~ 6X=X&X<X=X<X<X%X=XyXaX",
"U.$X$XL.J.k.&XL.R.W.$X^.o.Q ( ! ~ ' ' ' ^ G L G X m J R J R R R J K $ + K K K H J @ @ @ $ G X L _ L L D ~ %X=X=X6XyX<X3X%X X{.L.",
"S.=X6X=Xb J.=X X5XyX;Xb C E F F I ~ ' _ T _ _ _ R U R R R R R _ _ J U J U L I I D O G ~ ) ^ m I F F O ! ( =XL.$X$Xb.%X$X&X%Xk.7 ",
"A S. X%Xg.D.|.L.$X<X$X^.+.@.( D ~ ' ' _ R _ _ _ J O G G J R U R ' *.*.~ G I ( @.-.$.$.=.#./ Q + @ J o ! @.=X=XeXyX%X|.|.M.$XL.R."
};
