/* XPM */
static char *_f94cdbfecb44169d612a5318e3c23edHLWSHJtE1VBsxQUO[] = {
/* columns rows colors chars-per-pixel */
"64 64 237 2 ",
"   c #060C16",
".  c #080C17",
"X  c #060D1A",
"o  c #080E1A",
"O  c #07101D",
"+  c #0C111D",
"@  c #12161E",
"#  c #14181E",
"$  c #0D1422",
"%  c #07142B",
"&  c #0D172B",
"*  c #141A26",
"=  c #1B1D22",
"-  c #161D2C",
";  c #141E31",
":  c #1C212A",
">  c #172335",
",  c #1A2334",
"<  c #16243B",
"1  c #1A263A",
"2  c #1D2A3C",
"3  c #26272A",
"4  c #302C2B",
"5  c #252A34",
"6  c #212A3B",
"7  c #353436",
"8  c #453C3B",
"9  c #1C2B42",
"0  c #192C46",
"q  c #1F324A",
"w  c #1A2F53",
"e  c #1F355C",
"r  c #222D44",
"t  c #24354B",
"y  c #293749",
"u  c #373B45",
"i  c #273A58",
"p  c #433F46",
"a  c #354659",
"s  c #30455E",
"d  c #2D466B",
"f  c #374A67",
"g  c #3B4E6C",
"h  c #3C526A",
"j  c #3C5372",
"k  c #494548",
"l  c #554C4A",
"z  c #444B5B",
"x  c #514E52",
"c  c #4F515B",
"v  c #5A5557",
"b  c #655D5B",
"n  c #675D5C",
"m  c #454F63",
"M  c #46576A",
"N  c #545C6A",
"B  c #425573",
"V  c #455A76",
"C  c #485A77",
"Z  c #4A5C7A",
"A  c #525E76",
"S  c #605D61",
"D  c #4B637A",
"F  c #5C6C72",
"G  c #546379",
"H  c #586778",
"J  c #646267",
"K  c #6D6462",
"L  c #746967",
"P  c #79766D",
"I  c #646D7B",
"U  c #6B737B",
"Y  c #7C7671",
"T  c #817D72",
"R  c #7F8279",
"E  c #8E8C6A",
"W  c #918E6E",
"Q  c #97936C",
"!  c #858475",
"~  c #898777",
"^  c #898778",
"/  c #8C8B7B",
"(  c #938F74",
")  c #918E7D",
"_  c #8F907D",
"`  c #959273",
"'  c #9A9576",
"]  c #999A76",
"[  c #93917C",
"{  c #9A967B",
"}  c #9D9A7C",
"|  c #A29E7C",
" . c #A8A27D",
".. c #4D6685",
"X. c #556682",
"o. c #5B6C85",
"O. c #5A6D8B",
"+. c #5E7286",
"@. c #596F91",
"#. c #616E85",
"$. c #63758C",
"%. c #68788A",
"&. c #777C86",
"*. c #647B92",
"=. c #677B98",
"-. c #727F93",
";. c #778289",
":. c #6C8194",
">. c #6B829B",
",. c #68849A",
"<. c #748594",
"1. c #778596",
"2. c #758C9C",
"3. c #7C8D9B",
"4. c #7E919E",
"5. c #798AA5",
"6. c #7C93A7",
"7. c #888884",
"8. c #908F88",
"9. c #949282",
"0. c #999684",
"q. c #9D9B84",
"w. c #95948B",
"e. c #9D9B89",
"r. c #878B95",
"t. c #84929D",
"y. c #8D949A",
"u. c #979897",
"i. c #A19E84",
"p. c #AA9B86",
"a. c #A19E8A",
"s. c #A99D8C",
"d. c #A4A185",
"f. c #A9A585",
"g. c #A5A28B",
"h. c #A9A68D",
"j. c #A3A98B",
"k. c #ACA98D",
"l. c #B6A48F",
"z. c #B2AD8E",
"x. c #A5A392",
"c. c #A9A692",
"v. c #ADAA91",
"b. c #ADAB94",
"n. c #A4A49B",
"m. c #ADAB9A",
"M. c #B1AD95",
"N. c #B1AE99",
"B. c #B9AC9A",
"V. c #B2B592",
"C. c #B5B294",
"Z. c #B9B492",
"A. c #B4B19C",
"S. c #B9B49D",
"D. c #BCB99D",
"F. c #828CA0",
"G. c #8493A4",
"H. c #8493AC",
"J. c #8A97AA",
"K. c #969CA8",
"L. c #8D9BB3",
"P. c #8898B5",
"I. c #929EB5",
"U. c #A29DA6",
"Y. c #8DA2AF",
"T. c #9BA1A8",
"R. c #95A2B6",
"E. c #99A6B9",
"W. c #A9AAA3",
"Q. c #ABACAC",
"!. c #B1AFA1",
"~. c #AEB1AC",
"^. c #B6B4A1",
"/. c #B9B6A3",
"(. c #BAB9A6",
"). c #B6B5A9",
"_. c #BDBBAB",
"`. c #A7AAB5",
"'. c #A3ACBC",
"]. c #ADB2BA",
"[. c #BDBCB3",
"{. c #B6B8B8",
"}. c #C1BEAD",
"|. c #C1BFB1",
" X c #C2C0AF",
".X c #C4C3B3",
"XX c #C2C6BF",
"oX c #9BAAC4",
"OX c #A3AEC2",
"+X c #A0AFCA",
"@X c #A6B2C4",
"#X c #ACB4C3",
"$X c #A4B3CC",
"%X c #ABB7C8",
"&X c #ADB9CC",
"*X c #B5BBC8",
"=X c #A7B7D2",
"-X c #B1BDD1",
";X c #B9C2CD",
":X c #B5C2D4",
">X c #BBC5D4",
",X c #BAC6D8",
"<X c #BDC9DB",
"1X c #BECEE1",
"2X c #C3C7CA",
"3X c #C4CCD5",
"4X c #C3CCDC",
"5X c #CBD1D3",
"6X c #C6D0DD",
"7X c #C9D1DE",
"8X c #D7DBDB",
"9X c #C1CDE1",
"0X c #C5D1E3",
"qX c #CAD4E3",
"wX c #CAD7EA",
"eX c #CBD8EA",
"rX c #D1DAE6",
"tX c #D3DCEC",
"yX c #CEDDF1",
"uX c #D4DFF0",
"iX c #D6E1EC",
"pX c #DAE2EE",
"aX c #D6E2F2",
"sX c #DCE5F4",
"dX c #DFE9F6",
"fX c #DDE7F8",
"gX c #DDE9F9",
"hX c #E1E8ED",
"jX c #E0E7F5",
"kX c #E2E9F6",
"lX c #E4EDFA",
"zX c #E8EFFC",
"xX c #E6F0FE",
"cX c #ECF4FD",
"vX c #EDF6FC",
"bX c #F0F7FD",
"nX c #F2F9FE",
/* pixels */
"h.d.q.} q.q.g.k.b.b.h.0.q.k.d.| ] f.b.h.b.M.h.} q.' ` ] d.h.M.b.k.k.d.| i.g.N.p.i.C.M.M.b.M.M.k.d.' Q i.0.A.A.h.h.g.g.q.q.} f.b.",
"| q.} { q.q.q.q.g.b.M.) 9.g.h.d.d.h.' } k.b.M.^.b.^.S.(.d.b.b.b.h.d.q.c.b.} i.g.q.a.A.A.N.b.A.d.b.g.q.9./ A.b.q.q.a.a.a.q.q.Q ' ",
"} } } q.} 0.q.q.i.h.b./ / 9.a.x.i.q.b.N.A.m.x.g.x.g.x.b.M.b.b.b.g.g.k.h.h.g.i.i.i.i.k.A./.x.N.(.m.m.a.) / M.i.q.q.q.a.g.x.x.} ' ",
"| i.q.i.} q.q.q.i.h.k.^ ^ 9.x.c.x.b.A.A.A.e.g.k.h.a.p.l.B.A.b.b.M./.A.A.b.A.A.g.f.g.g.x.g.g.A.c.!.b.a.) / A.g.q.e.q.e.e.x.b.h.} ",
"| d.i.i.q.q.{ q.i.f.h./ / 0.x.m.m.h.d.} b.x.} h.b.h.^.^.A.A.A.A.A.A.A.M.A.b.b.N.A.b.N.A.A.b.b.m.c.x.9./ [ b.g.a.e.a.q.q.a.g.g.h.",
"| d.d.i.i.d.` { i.g.h./ / 0.a.m.m.m.A.b.M.b.^./._._./.(.^.A.M.N.A.A.N.M.A.b.b.b.b.N.(.^.A.g.g.c.e.9./ 9.9.b.g.g.g.g.q.q.q.i.a.g.",
"| d.d.d.g.d.' q.i.h.b./ ^ / 0.x.m.m.m.b.^.M.A.^./.^.A.b.b.A.(._.^.b.g.b.N.g.d.b.} i.' i.d.g.m.A.d.| { 9.9.S.b.x.x.x.g.q.a.g.q.i.",
"} d.g.g.i.q.q.q.g.b.b./ ! ^ / a.!.m.N.m.A.N.N.A.N.A.A.S.A.b././.b.N.A.(.^.A./.A./.A.k.h.d.N.N.b.N.b.[ 9.9.A.A.h.b.N.x.g.g.a.{ ` ",
"} d.d.q.q.q.q.i.a.g.N.) ^ ! ! { A.d.h.m.b.A.M./.b.b.b.b./.^./.^.A.^.A.A.N.b.b.N.b.N.A.c.g.A.N.g.N.M.[ 9.9.b.b.M.b.b.M.b.x.g.g.a.",
"i.} } { q.q.q.a.g.g.g.) / ~ ! / d.g.d.m.^./.A.(.9.B.(.(.^.A.^.(.^.A.^.N.m.N.N./.b.^.(.A.A.h.A.A.A.` / [ 9.A.A.N.A.b.x.g.N.N.b.^.",
"d.d.i.g.g.a.q.x.g.b.x./ [ / ! ~ i.i.m./.(.(.x.h.g.x.g.g.A.q./ m.A.i.i.g.{ ( g.k.f.N.M.h.N.A.S.k.B.(.[ 9.0.v.M./.(.S.l.g.m.N.^.^.",
"d.g.h.g.h.g.x.h.x.x.b.) ) ) ~ ~ g.d.N./._._.}..X.X.X.X.X.X.X.X.X.X.X.X.X.X.X.X.X.X}._._.^.^.^.x.a.s.9.a.e.a.a.N.m.x.x.x.m.e.c.c.",
"g.g.d.| g.b.h.q.i.b.N.) / / ~ ^ h.A.A./.(._. X.X.X.X.X.X.X.X.X.X.X.X.X.X.X.X.X.X X X_._.^.b.b.x./.g.q.a.q.b.A.A.^.^.m.x.x.e.p.h.",
"g.b.h.h.k.A.M.h.N.b.M./ / ! ! ~ h.} M.A.(.}. X.X.X.X.X.X.X.X.X.X.X.X.X.X.X.X.X.X.X.X}._.A.x.i.d.d.i.i.i.g.x.N.N.A.A.S.A.g.0.9.a.",
"d.b.A.A.A.A.A.A.g.0.0./ / ^ ! ! f.| g.N.(.}.}. X.X.X.X.X.X.X.X.X.X.X.X.X.X.X.X.X.X.X}._.A.^.M.h.d.d.g.g.g.h.x.b.b.b.h.b.g.A.A.q.",
"b.b.A.A.^.^.A.A.b.0.q./ ^ / ! ! b.A.A.N./._..X.X.X.X.X.X.X.X[.|.[._.).[..X[..X.X.X.X}._.^._.(././.i.g.g.g.g.i.d.x.h.x.M.N._.^.g.",
"M.h.b.N.^.^.A.A.A.m.b./ ^ / ! ! b.A.N.V._.}. X[.W.Q.[.{.{.{.{.{.{.U.u.Q.{.{.{.{.{.)._.(._.^.A.b.g.g.a.g.q.q.i.g.b.k.f.b.b.l.B.g.",
"g.} ` i.h.b.b.M.A.A.A./ ! ~ ! ^ g.h.A.S._._._.~.r.K.].].@X@X@XOXOXK.J.`.OX'.'.'.`.].~.m.A./.A.h.a.a.a.q.9.g.m.c.9.0.[ { } ~ 0.9.",
"i.' W ` q.q.h.M.d.b.M.^ ! ! ! / e.N.A.A.(._.Q.K.I.E.E.R.E.I.I.L.L.I.R.L.L.I.R.R.R.R.y.8.g.b.b.h.g.a.0.q.a.b.A.A.M.q.q.' W [ ] q.",
"f.g.{ ` } i.g.b.i.i.d./ ^ ! ! ! 0.b.A.^.(.~.t.H H V f i j d e w i i e e i f g g ..$.#.U e.g.d.q.g.g.g.q.i.b.b.N.b.b.M.b.g.i.i.b.",
"b.b.q.q.{ q.q.g.( ( W ) / ! ! ! / b.b.^.).T.G V q 0 2 < 9 q t q t t t t 9 9 2 0 d j V H w.b.k.A.a.g.g.i.g.k.h.g.x.c.S./.S.A.h.d.",
"N.N.h.a.q.q.i.g.g.g.a./ ^ ! ! ^ / N.^.^.Q.%.D j < 2 > , , t ..s y t y m 2 , 1 1 t q D G &.e.g.a.g.g.h.h.h.h.g.m.^.^././.A.A.A.N.",
"M.A.b.b.a.g.i.a.e.j.V./ ! ! ! / 9.}.(.!.K.M D 2 y a a a h M 5.2.H H H %.M m m z h y y h I w.g.g.g.h.h.k.h.M.b.b.^.^././.(.(./.A.",
"b.b.b.b.b.x.x.k.A.A.A./ ! ! ! / 0./.^.T.#.M M D *.*.*.:.>.2.E.Y.t.t.T.T.G.4.3.4.4.3.G a h ;.0.g.g.k.k.z.k.A.A.M.N.(./.A.x.9.c.h.",
"A.b.b.b.b.b.h.b.A.^.A./ ! ! ! ^ 0.m.x.;.m F ,.>.=.*.*.=.*.:.2.<.:.<.t.t.t.t.3.3.4.G.G.:.f %.8.g.h.k.z.k.g.^.(.(.^.^.A.A.N.x.g.i.",
"M.b.b.h.b.b.g.g.A./.^.9.^ ! ! ^ / ^.8.N H 6.>.,.*.*.*.*.*.*.+.+.+.+.%.<.3.3.3.2.2.4.6.J.:.M 7.q.k.k.M.k.d.A./.(./.^.b.h.{ W d.M.",
"A.b.b.b.b.b.b.b.A././.9./ ~ / / / n.<.M 2.2.=.=.$.$.*.$.$.$.$.$.$.*.$.%.<.3.3.3.2.2.5.6.Y.H &.w.h.z.M.M.h.M.^./.^.^.N.b.d.' ' g.",
"h.b.b.b.b.b.b.S.^./.A.i.i.d. .| / y.#.G G.2.=.=.=.>.:.>.<.:.:.>.>.=.:.<.t.G.t.4.2.>.>.,.H.<.C y.q.z.M.k.h.A.M.A./.^.A.A.A.h.` ' ",
"d.b.b.b.b.b.A.S.^.A.b.g.f.d. .] P %.g i g f i d j V D C V B j j g i f B V G o.o.O.......O.O.i <.R f.z.z.k.C.b.d.b.A.A.A.A.N.h.g.",
"b.M.M.N.M.b.N.S.(.S.M.h.d.d. .W J E.oXJ.H.5.$.o.o.X.$.#.o.O.X.D Z V Z G X.X.X.X.O.*.=.5.H.L.H.@X;.' z.z.k.z.b.g.d.b.M.b.b.b.h.g.",
"b.b.M.N.N.b.N.A.^./.C.h.f.f.f.7.K.sXsXtXtXrXeXqXqX,X<X7X4X4X4X4X4X4X4X4X4X4X,X:X4X4XqXeXrXtXtXtX].R d.z.h.h.b.b.x.M.N.b.} ' } b.",
"b.b.A.A.N.b.b.A.A.A.A.k.h.f.i.y.eXsXuXaXsXsXsXkXkXsXsXkXkXkXlXkXkXkXkXkXkXlXjXsXkXkXjXsXsXsXsXsXtXy.9.z.h.h.q.g.g.b.M.b.' E d.b.",
"b.b.S.A.b.b.b.M.b.N.S.k.k.d._ :XaXsXaXaXaXaXaXaXsXaXsXsXsXsXsXsXsXjXsXsXsXsXsXsXsXsXsXsXsXsXaXtXaX>Xw.z.h.d.q.} E } k.b.{ } b.b.",
"N.M.A.A.b.h.g.b.b.N.A.k.h.q.n.yXuXsXaXaXsXsXsXsXsXsXsXsXjXkXkXkXkXkXkXsXjXkXkXjXjXkXkXsXsXsXsXaXuXsXQ.h.i.g.a.i.` Q } g.d.M.N.x.",
"b.b.x.g.q.q.q.g.b.M.C.k.h.q.Q.@XaXfXaXaXsXsXsXsXsXsXsXsXjXkXlXkXkXkXkXkXkXkXkXkXkXkXkXjXsXsXaXsXtX3X].d.q.N.m.N.N.h.d.i.h.M.N.M.",
"b.b.h.a.q.q.q.a.g.C.C.z.g.w.r.F.aXlXgXsXgXgXgXlXlXlXlXlXlXzXxXxXvXvXvXxXxXxXxXzXxXxXzXzXlXlXdXgXtXK.K.a.d.A.A.A./.A.b.h.b.M.A.b.",
"b.m.x.g.a.0.q.q.g.C.C.k.q.W.U.K.qXcXgXgXlXlXlXxXvXvXvXvXvXvXvXnXnXnXnXnXnXbXvXvXnXbXvXvXvXxXlXlXrX`.Q.!.f.z.A.A.^.A.b.b.b.[ ~ g.",
"b.N.b.g.q.q.0.q.g.C.Z.k.e.`.#X#X4XvXlXgXdXlXlXlXlXlXxXxXxXvXvXvXvXbXbXbXbXvXvXvXvXvXxXvXxXxXxXxX7X*X*X[.a.M.N.b.b.b.x.g.g.g.} } ",
"b.A.A.x.g.q.e.g.b.C.C.i.u.L.J.I.&XvXxXlXlXlXxXlXlXlXxXxXzXxXvXvXvXvXvXvXvXvXvXvXvXvXvXvXvXvXvXxX:X'.].].m.k.b.h.h.g.d.g.g.h.g.| ",
"^.^.A.x.g.g.g.b.S.Z.C.a.K.@XH.6.L.dXvXlXxXcXvXvXvXvXvXvXvXvXbXbXvXnXnXnXnXnXnXnXnXnXnXvXvXvXvXpXR.R.'.2XW.N.b.g.d.i.a.g.g.x.h.g.",
"|._.A.N.b.x.b.S./.Z.Z.e.J.;XE.&XJ.0XvXlXlXxXvXvXcXvXvXvXvXvXvXxXxXxXnXbXnXbXbXbXvXvXvXvXcXcXvX,XL.*X*X8Xu.^.g.g.g.i.q.e.a.g.h.g.",
"_.(./.m.N.N._.A.S.Z.Z.n.3.J.H.:XI.$XxXlXlXlXvXxXcXcXcXcXvXvXlXqX7XtXvXcXvXvXvXvXvXvXvXcXcXcXxXE.'.>X*X{.y._.a.q.i.q.q.a.g.x.b.N.",
"_.(.N.g.a.x.m.A.A.Z.Z.W.<.%.5.L.L.L.aXlXlXlXlXlXlXlXlXlXlXzXaX-XoX9XkXxXzXzXzXxXxXxXcXcXxXcXiXJ.`.`.*Xr.K.[.a.i.d.q.i.g.b.b.b.b.",
"^.^.x.g.g.a.b./.A.C.Z.~.J.X.=.5.G.5.<XgXgXfXdXsXfXfXlXlXlXlXtX,X=X,XkXlXlXlXlXlXlXlXlXlXkXcX-XK.].Q.J.H ;X[.a.i.i.e.a.e.a.e.e.i.",
"N.A.b.g.q.a.a.g.A.Z.Z.~.,X$.$.@.O.@.oXsXsXfXsXsXsXsXsXsXsXsXsX4X<XqXlXsXsXjXjXkXkXkXlXkXkXkXG.y.y.<.A %.iX/.i.e.g.b.g.e.a.q.q.i.",
"b.m.m.g.g.a.g.g.b.Z.Z.Q.gX-XH.5.=.@.H.uXuXuXsXsXsXsXsXsXdXsXkXpXrXlXkXkXkXkXdXdXsXdXsXsXkXeX-.%.#.o.3.rXhXm.i.g.b.^.^.A.b.g.i.d.",
"g.b.N.b.x.x.x.b.C.C.Z.W.yXgXfXeX1X=X:XaX0XoXE.@X%X&X-X>X,X4X4X4XqX4X4X4X4X<X>X:X&X%X%X>XpXiXE.E.>XiXnXnX8XN.h.A./.^./.b.h.b.d.| ",
"A./.^.m.b.N.m.N.A.C.C.n.wXyXeXuXaXsXaXtXeX6.Z j j g f j B B B V Z C B V V B j g g V @.$XtXpXlXkXkXkXkXkX5Xm.N.N.M.N.A.b.b.N.f.| ",
"^.(./.A.x.N.A.A.^.Z.Z.n.4XyXwXeXeXeXeXeXtXfXwX,X=X+XoXL.H.6.5.5.5.5.5.6.H.L.E.OX&X<XtXiXrXqXqXqXqXeXiXtX2Xc.N.b.M.b.b.g.h.z.k.| ",
"(.(./.(._.^.A./.(.S.Z.x.:XwXwX<X9X0X0X0X0XqXtXeXqXrXtXpXsXjXkXkXjXkXkXkXkXsXpXtXrXpXtX7X6X7XqXqX7X6XrX6XXXc.N.b.i.q.q.q.q.a.d.] ",
"_.(.^.^.(.^.^.(._.D.Z.u.;X<X0XZ o.:.G.R.OX%X-X%.f M M M G G G A A A G H H A A H M @X4X*X#X'.J.<.o.R.qX3X2Xc.b.g.d.q.e.e.e.g.g.i.",
"(./.^.^.^.A././.(.S.Z.u.<X>XwXg & 0 0 t i s g 9 9 r 9 9 r r 9 < < < 9 r r 9 r y 9 a M s i t 0 0 q L.4X3X2Xi.i.q.i.a.g.x.b.g.M.f.",
"^.^.^.A./.(.A.9.a.k.C.y.@X:X0XH.% 1 1 1 1 2 1 & > 1 2 1 1 1 1 2 6 1 1 1 1 6 2 1 > ; 2 2 2 r y r m :X6X;X{.i.f.i.i.g.x.b.b.x.A.M.",
"x.x.m.N.A.c.x.e.h.C.Z.r.$.G.,X:Xy $ - ; , > > $ , , > > > > , , , , , , , , ; 6 - - 6 1 6 6 6 9 -.qX>XI K.{  .h.a.g.b.b.h.N.A.A.",
"S.N.m.N.b.b.b.g.M.C.Z.&.L.D %X4XR.1 X $ $ $ $ $ , - - - , - - - - - - - - - - , - $ - - - - ; G <X7X<.$.].Y ) g.g.a.c.N.^././.N.",
"(.^.m.m.x.b.N.g.M.C.C.J OX=X&X>X:XM X $ + o X o + + + + $ + + $ $ $ $ $ $ $ $ $ $ o + $ & - < R.6X;X#X4Xu.L ) h.a.a.x.^.(.^.g.k.",
"/.(.^.A.m.c.m.A.~ M.Z.S r.<X&X-X<X5.& $ $ + o o + X X X       X o . . o X . . o o + $ $ * $ a ,X,X*X6X5XY L ) k.a.e.x.x.A.m.h.g.",
"A.^.A.A.m.N.A.A.P d.Z.v J '.-X&X>X%Xy   X X     X     . o       .     X o X o o X X + $ & O <.6X;X*X2Xu.K L ) h.x.a.x.x.c.A.9.g.",
"A.A.A.A.A.^././.Y i.Z.S x J %X,X:X,X%.s t < ; & & $ X X O X X X X X X + + o $ & & ; 1 9 i s %X3X;X3XK.J L L ) _.).x.x.x.b.b.A.A.",
"M.A.^.A.A.A.N.m.T q.Z.v v x N G.-X<X-X=XoXP.5.=.*.O.Z V V B g g g g g V V Z X.*.=.5.I.OX-X&X>X>X`.;.b b K L w.{.w.b.x.x.g.M.A./.",
"x.M.A.b.h.b.^.N.g.k.C.v v x k k M %.%.N I <.J.I.E.oX+X$X$X$X$X+XoX$X$X$X=X$X$X@X'.R.K.r.I I <.I c v b n K L 8.w./ b.b.b.x.M.^./.",
"x.x.x.g.g.d.b.x.b.C.C.v v x x k u u 5 : : : 5 5 y u u a z z z z z z z z z z a u y 6 5 5 5 7 p k k v n n K K 7./ x.^.c.M.M.k.h.g.",
"d.M.A.M.f.h.M.l.N.C.C.v v v x k k 7 7 5 3 = * @ + + + + + + + + + + + + @ @ $ * = : = = 4 8 8 l l v b b K K Y ^ q.g.b.b.b.b.d.` ",
" .f.k.M.k.k.b.g.b.C.C.v v x x k k k 7 7 7 5 3 3 = = # @ # * @ # # # = = = : 3 3 4 7 7 4 7 k l l v v b b K L Y e.c.b.h.k.g.x.g.j."
};
